<?xml version="1.0" encoding="utf-8"?>
<!-- Generator: Adobe Illustrator 27.8.1, SVG Export Plug-In . SVG Version: 6.00 Build 0)  -->
<svg version="1.1" id="Layer_1" xmlns="http://www.w3.org/2000/svg" xmlns:xlink="http://www.w3.org/1999/xlink" x="0px" y="0px"
	 viewBox="0 0 50 50" style="enable-background:new 0 0 50 50;" xml:space="preserve">
<style type="text/css">
	.st0{display:none;}
	.st1{display:inline;fill:#FDC70A;}
	.st2{display:inline;fill:#11B482;}
	.st3{fill:#326E6A;}
	.st4{fill:#EFEDD1;}
</style>
<g class="st0">
	<path class="st1" d="M0.5,40.2c0.4-0.5,0.8-0.9,1.1-1.4c1.2-1.6,2.2-3.3,2.7-5.3c0.3-0.9,0.4-1.8,0.6-2.6c0-0.2,0-0.2-0.2-0.3
		c-1.6-1-1.5-3.3,0.2-4.1c0.2-0.1,0.2-0.2,0.2-0.3c0-1.1,0.1-2.1,0.3-3.2c0.3-1.4,1-2.6,2-3.7l0.1-0.1c-0.6-0.2-1.1-0.4-1.7-0.6
		c-1.2-0.4-2.4-0.8-3.5-1.2C2,17.3,1.8,17.2,1.6,17c-0.4-0.3-0.4-0.6,0-0.9c0.2-0.2,0.5-0.4,0.8-0.5c4.1-1.4,8.2-2.8,12.4-4.2
		c3.1-1.1,6.3-2.1,9.4-3.2c1.4-0.5,1-0.5,2.5,0c3.3,1.2,6.7,2.3,10.1,3.5c2.8,1,5.6,1.9,8.4,2.9c1,0.3,2,0.7,3,1
		c0.3,0.1,0.7,0.3,0.9,0.5c0.4,0.3,0.4,0.7,0,0.9c-0.2,0.2-0.5,0.3-0.8,0.4c-2.9,1-5.7,2-8.6,3c-2.7,0.9-5.4,1.9-8.1,2.8
		c-1.8,0.6-3.6,1.2-5.4,1.9c-0.5,0.2-0.9,0-1.4-0.1c-3.4-1.2-6.8-2.3-10.3-3.5c-0.4-0.1-0.9-0.3-1.4-0.5c0.1,0,0.2-0.1,0.2-0.1
		c3.9-1.6,7.8-3.1,11.7-4.7c0.2-0.1,0.4-0.2,0.6-0.2c0.6-0.3,0.9-0.9,0.6-1.5c-0.2-0.6-0.9-0.8-1.5-0.6c-0.8,0.3-1.6,0.6-2.4,1
		c-2.8,1.1-5.6,2.3-8.3,3.4c-1.2,0.5-2.4,1-3.7,1.5C9.9,20,9.4,20.5,8.9,21c-0.9,1.1-1.3,2.3-1.4,3.7c-0.1,0.5-0.1,1.1-0.1,1.6
		c0,0.1,0.1,0.2,0.1,0.3c1.3,0.9,1.3,2.8,0.1,3.7c-0.1,0.1-0.1,0.2-0.1,0.3c0.1,1.1,0.1,2.1,0.2,3.2c0.1,1.6,0,3.1-0.4,4.6
		c-0.5,1.6-1.4,2.8-3,3.6c-0.1,0-0.2,0.1-0.3,0.1c0,0,0,0-0.1,0S3.7,42,3.7,42c-0.7-0.3-1.3-0.6-2-1C1.3,40.8,0.9,40.5,0.5,40.2
		L0.5,40.2z"/>
	<path class="st1" d="M41,22.9c0,0.1,0,0.2,0,0.3c0,2.4,0,4.8,0,7.2c0,0.6-0.2,1-0.6,1.4c-0.3,0.5-0.8,0.7-1.3,1
		c-2.7,1.3-5.5,2.3-8.4,2.8c-2.4,0.4-4.8,0.6-7.3,0.4c-2.8-0.2-5.6-0.7-8.2-1.7c-1.2-0.4-2.3-1-3.4-1.5c-0.4-0.2-0.6-0.7-0.8-1.1
		c0,0,0-0.1,0.1-0.2c1.1-1.5,1-3.6-0.2-4.9c0,0-0.1-0.1-0.1-0.2c0-1.1,0-2.2,0-3.4c0.6,0.2,1.2,0.4,1.8,0.6c2.2,0.8,4.5,1.5,6.7,2.3
		c1.9,0.6,3.8,1.3,5.7,2c0.5,0.2,0.9,0.2,1.4,0c2.3-0.8,4.6-1.6,6.9-2.4c2.5-0.8,4.9-1.7,7.4-2.5C40.7,22.9,40.8,22.9,41,22.9z"/>
</g>
<g class="st0">
	<path class="st2" d="M44,37.5c-1-6-4-10.6-9.2-13.8c-0.6-0.3-1.2-0.6-1.8-1c-2.7,7.3-5.3,14.5-8,21.7h-0.1
		c-2.7-7.2-5.3-14.4-8-21.7c-0.2,0.1-0.4,0.2-0.6,0.3c-5.6,3-9,7.6-10.2,13.8c-0.2,1-0.3,2.1-0.3,3.1c0.1,1.5,1,2.6,1.9,3.6
		c1.7,1.7,3.8,3,6,3.9c4.1,1.7,8.3,2.4,12.7,2.2c3.9-0.2,7.6-1.1,11.1-2.8c2-1,3.9-2.3,5.3-4c0.7-0.9,1.2-1.8,1.2-2.9
		C44.1,38.9,44.1,38.2,44,37.5z"/>
	<path class="st2" d="M25,21.5c5.7,0.1,10.5-4.6,10.5-10.4c0.1-5.7-4.7-10.5-10.3-10.6c-5.8-0.1-10.6,4.6-10.7,10.3
		C14.4,16.7,19,21.4,25,21.5z"/>
	<path class="st2" d="M26.8,24.1c-0.6-0.6-1.2-1.3-1.9-2c-0.6,0.7-1.2,1.3-1.8,2c0.7,0.6,1.3,1.2,1.9,1.8
		C25.6,25.4,26.2,24.8,26.8,24.1z"/>
	<path class="st2" d="M24.1,37.9c0.1,0.2,0.2,0.4,0.2,0.6c0.2,0.5,0.4,1,0.7,1.7l0,0l0,0l2.8-7.2l-1.5-5.9L25,26.2l-1.4,1l-1.3,5.9
		L24.1,37.9z"/>
</g>
<g>
	<circle class="st3" cx="25" cy="25" r="24.5"/>
</g>
<g>
	<path class="st4" d="M26,14c0.8,0,1.6,0.1,2.3,0.2c0.7,0.2,1.4,0.4,2.1,0.7l-0.8,3.1c-0.7-0.2-1.3-0.4-1.8-0.5s-1.1-0.2-1.8-0.2
		c-1.2,0-2.3,0.5-3,1.4s-1.1,2.3-1.1,4v0.7c0.6-0.6,1.2-1,2-1.3s1.7-0.5,2.6-0.5c1.8,0,3.3,0.6,4.3,1.9s1.5,3,1.5,5.1
		c0,2.1-0.7,3.9-2,5.2s-3.1,2-5.2,2c-2.2,0-4-0.8-5.4-2.3s-2.1-3.6-2.1-6.3V23c0-2.7,0.8-4.9,2.4-6.5S23.6,14,26,14z M25.1,25
		c-0.8,0-1.4,0.1-2,0.4s-1,0.6-1.3,1v1.1c0,1.6,0.3,2.9,0.9,3.8s1.4,1.3,2.4,1.3c0.9,0,1.6-0.4,2.1-1.1c0.5-0.7,0.8-1.7,0.8-2.8
		c0-1.2-0.3-2.1-0.8-2.8C26.8,25.3,26,25,25.1,25z"/>
</g>
</svg>
