<?xml version="1.0" encoding="utf-8"?>
<!-- Generator: Adobe Illustrator 27.8.1, SVG Export Plug-In . SVG Version: 6.00 Build 0)  -->
<svg version="1.1" id="Layer_1" xmlns="http://www.w3.org/2000/svg" xmlns:xlink="http://www.w3.org/1999/xlink" x="0px" y="0px"
	 viewBox="0 0 50 50" style="enable-background:new 0 0 50 50;" xml:space="preserve">
<style type="text/css">
	.st0{display:none;}
	.st1{display:inline;fill:#FDC70A;}
	.st2{display:inline;fill:#11B482;}
	.st3{fill:#326E6A;}
</style>
<g class="st0">
	<path class="st1" d="M0.5,40.2c0.4-0.5,0.8-0.9,1.1-1.4c1.2-1.6,2.2-3.3,2.7-5.3c0.3-0.9,0.4-1.8,0.6-2.6c0-0.2,0-0.2-0.2-0.3
		c-1.6-1-1.5-3.3,0.2-4.1c0.2-0.1,0.2-0.2,0.2-0.3c0-1.1,0.1-2.1,0.3-3.2c0.3-1.4,1-2.6,2-3.7l0.1-0.1c-0.6-0.2-1.1-0.4-1.7-0.6
		c-1.2-0.4-2.4-0.8-3.5-1.2C2,17.3,1.8,17.2,1.6,17c-0.4-0.3-0.4-0.6,0-0.9c0.2-0.2,0.5-0.4,0.8-0.5c4.1-1.4,8.2-2.8,12.4-4.2
		c3.1-1.1,6.3-2.1,9.4-3.2c1.4-0.5,1-0.5,2.5,0c3.3,1.2,6.7,2.3,10.1,3.5c2.8,1,5.6,1.9,8.4,2.9c1,0.3,2,0.7,3,1
		c0.3,0.1,0.7,0.3,0.9,0.5c0.4,0.3,0.4,0.7,0,0.9c-0.2,0.2-0.5,0.3-0.8,0.4c-2.9,1-5.7,2-8.6,3c-2.7,0.9-5.4,1.9-8.1,2.8
		c-1.8,0.6-3.6,1.2-5.4,1.9c-0.5,0.2-0.9,0-1.4-0.1c-3.4-1.2-6.8-2.3-10.3-3.5c-0.4-0.1-0.9-0.3-1.4-0.5c0.1,0,0.2-0.1,0.2-0.1
		c3.9-1.6,7.8-3.1,11.7-4.7c0.2-0.1,0.4-0.2,0.6-0.2c0.6-0.3,0.9-0.9,0.6-1.5c-0.2-0.6-0.9-0.8-1.5-0.6c-0.8,0.3-1.6,0.6-2.4,1
		c-2.8,1.1-5.6,2.3-8.3,3.4c-1.2,0.5-2.4,1-3.7,1.5C9.9,20,9.4,20.5,8.9,21c-0.9,1.1-1.3,2.3-1.4,3.7c-0.1,0.5-0.1,1.1-0.1,1.6
		c0,0.1,0.1,0.2,0.1,0.3c1.3,0.9,1.3,2.8,0.1,3.7c-0.1,0.1-0.1,0.2-0.1,0.3c0.1,1.1,0.1,2.1,0.2,3.2c0.1,1.6,0,3.1-0.4,4.6
		c-0.5,1.6-1.4,2.8-3,3.6c-0.1,0-0.2,0.1-0.3,0.1c0,0,0,0-0.1,0S3.7,42,3.7,42c-0.7-0.3-1.3-0.6-2-1C1.3,40.8,0.9,40.5,0.5,40.2
		L0.5,40.2z"/>
	<path class="st1" d="M41,22.9c0,0.1,0,0.2,0,0.3c0,2.4,0,4.8,0,7.2c0,0.6-0.2,1-0.6,1.4c-0.3,0.5-0.8,0.7-1.3,1
		c-2.7,1.3-5.5,2.3-8.4,2.8c-2.4,0.4-4.8,0.6-7.3,0.4c-2.8-0.2-5.6-0.7-8.2-1.7c-1.2-0.4-2.3-1-3.4-1.5c-0.4-0.2-0.6-0.7-0.8-1.1
		c0,0,0-0.1,0.1-0.2c1.1-1.5,1-3.6-0.2-4.9c0,0-0.1-0.1-0.1-0.2c0-1.1,0-2.2,0-3.4c0.6,0.2,1.2,0.4,1.8,0.6c2.2,0.8,4.5,1.5,6.7,2.3
		c1.9,0.6,3.8,1.3,5.7,2c0.5,0.2,0.9,0.2,1.4,0c2.3-0.8,4.6-1.6,6.9-2.4c2.5-0.8,4.9-1.7,7.4-2.5C40.7,22.9,40.8,22.9,41,22.9z"/>
</g>
<g class="st0">
	<path class="st2" d="M44,37.5c-1-6-4-10.6-9.2-13.8c-0.6-0.3-1.2-0.6-1.8-1c-2.7,7.3-5.3,14.5-8,21.7h-0.1
		c-2.7-7.2-5.3-14.4-8-21.7c-0.2,0.1-0.4,0.2-0.6,0.3c-5.6,3-9,7.6-10.2,13.8c-0.2,1-0.3,2.1-0.3,3.1c0.1,1.5,1,2.6,1.9,3.6
		c1.7,1.7,3.8,3,6,3.9c4.1,1.7,8.3,2.4,12.7,2.2c3.9-0.2,7.6-1.1,11.1-2.8c2-1,3.9-2.3,5.3-4c0.7-0.9,1.2-1.8,1.2-2.9
		C44.1,38.9,44.1,38.2,44,37.5z"/>
	<path class="st2" d="M25,21.5c5.7,0.1,10.5-4.6,10.5-10.4c0.1-5.7-4.7-10.5-10.3-10.6c-5.8-0.1-10.6,4.6-10.7,10.3
		C14.4,16.7,19,21.4,25,21.5z"/>
	<path class="st2" d="M26.8,24.1c-0.6-0.6-1.2-1.3-1.9-2c-0.6,0.7-1.2,1.3-1.8,2c0.7,0.6,1.3,1.2,1.9,1.8
		C25.6,25.4,26.2,24.8,26.8,24.1z"/>
	<path class="st2" d="M24.1,37.9c0.1,0.2,0.2,0.4,0.2,0.6c0.2,0.5,0.4,1,0.7,1.7l0,0l0,0l2.8-7.2l-1.5-5.9L25,26.2l-1.4,1l-1.3,5.9
		L24.1,37.9z"/>
</g>
<g>
	<path class="st3" d="M24.9,49.5c-6.7,0-13.3,0-20,0c-1.7,0-1.7,0-1.7-1.8c0-2.4,0-4.8,0-7.2c0-1.1,0.3-1.5,1.4-1.5
		c13.6,0,27.2,0,40.8,0c1.1,0,1.5,0.4,1.4,1.5c-0.1,2.5-0.1,5,0,7.6c0,1.1-0.4,1.4-1.5,1.4C38.5,49.5,31.7,49.5,24.9,49.5z M25,47.8
		c6.3,0,12.6,0,19,0c0.9,0,1.3-0.1,1.3-1.2c-0.1-1.3,0-2.6,0-3.8c0-2.2,0-2.2-2.3-2.2c-0.9,0-1,0.3-1,1.1c0.1,1,0,1.9,0,2.9
		c0,0.6,0,1.3-0.9,1.3c-0.8,0-0.8-0.7-0.8-1.3c0-1.1,0-2.2,0-3.3c0-1-0.7-0.7-1.2-0.7c-0.5,0-1.2-0.4-1.2,0.7c0,0.7,0.4,1.9-0.8,1.9
		c-1.3,0-0.8-1.1-0.8-1.8c0-1-0.6-0.8-1.2-0.8c-0.5,0-1.3-0.3-1.3,0.8c0,1,0,1.9,0,2.9c0,0.6,0.3,1.6-0.8,1.6c-1,0-0.8-0.9-0.8-1.5
		c0-0.9-0.1-1.9,0-2.8c0.1-1.1-0.5-1-1.2-1c-0.7,0-1.3-0.1-1.2,1c0.1,0.6,0.4,1.6-0.7,1.6c-1.2,0-0.8-1-0.9-1.7c0,0,0-0.1,0-0.1
		c0.1-1-0.6-0.8-1.1-0.7c-0.5,0-1.3-0.4-1.3,0.7c0,1.2,0,2.4,0,3.6c0,0.6-0.2,1-0.8,1c-0.6,0-0.8-0.4-0.8-1c0-1.1-0.1-2.2,0-3.3
		c0.1-1-0.4-1-1.2-1c-0.8,0-1.4-0.1-1.3,1.1c0.1,0.7,0.2,1.6-0.8,1.6c-1,0-0.7-0.9-0.8-1.5c0-0.1,0-0.2,0-0.3
		c0.1-1.1-0.7-0.8-1.2-0.8c-0.6,0-1.3-0.2-1.2,0.8c0.1,1.1,0,2.1,0,3.2c0,0.6,0,1.2-0.8,1.3c-0.8,0-0.8-0.6-0.8-1.2c0-1-0.1-2,0-3
		c0.1-1-0.4-1.1-1.2-1.1c-0.8,0-1.4,0-1.3,1.1c0.1,0.6,0.3,1.6-0.8,1.6c-1,0-0.7-0.9-0.8-1.5c0-0.1,0-0.2,0-0.3
		c0.1-1.1-0.7-0.8-1.2-0.8c-0.6,0-1.3-0.2-1.2,0.8c0.1,1.1,0,2.3,0,3.4c0,0.5-0.1,1-0.8,1C8.3,46,8,45.6,8,45c0-0.7,0-1.4,0-2.1
		c0-2.3,0-2.3-2.3-2.2c-0.8,0-1,0.3-0.9,1c0,1.6,0.1,3.2,0,4.8c-0.1,1.1,0.2,1.5,1.4,1.5C12.5,47.8,18.7,47.8,25,47.8z"/>
	<path class="st3" d="M42.8,23.4c0,3.9,0,7.9,0,11.8c0,1.3-0.4,1.6-1.6,1.6c-1.3-0.1-2.6,0-3.8,0c-0.9,0-1.3-0.3-1.3-1.2
		c0-8,0-16.1,0-24.1c0-1,0.4-1.3,1.3-1.3c1.3,0.1,2.6,0.1,3.8,0c1.1-0.1,1.6,0.3,1.5,1.5C42.7,15.5,42.8,19.5,42.8,23.4z M41.2,23.5
		c0-3.2,0-6.4,0-9.5c0-2.3,0-2.2-2.3-2.3c-1,0-1.2,0.2-1.2,1.2c0,6.6,0,13.2,0,19.7c0,2.5,0,2.5,2.5,2.5c0.8,0,1-0.2,1-1
		C41.1,30.6,41.2,27.1,41.2,23.5z"/>
	<path class="st3" d="M33.3,25.8c0,3.1,0,6.3,0,9.4c0,1.2-0.4,1.6-1.5,1.5c-1.4-0.1-2.7,0-4.1,0c-0.8,0-1.1-0.3-1.1-1.1
		c0-6.5,0-13.1,0-19.6c0-0.9,0.5-1.1,1.3-1.1c1.4,0,2.7,0.1,4.1,0c1.1,0,1.4,0.4,1.4,1.4C33.3,19.5,33.3,22.7,33.3,25.8z M28.2,25.8
		c0,2.4,0,4.8,0,7.1c0,2.2,0,2.1,2.2,2.2c1.1,0,1.3-0.4,1.3-1.3c0-5,0-10,0-15c0-2.4,0-2.3-2.3-2.4c-1,0-1.2,0.3-1.1,1.2
		C28.3,20.4,28.2,23.1,28.2,25.8z"/>
	<path class="st3" d="M39.5,2.2c-0.5,0-1,0.1-1.5,0.1c-0.5,0-0.9-0.2-0.9-0.8c0-0.5,0.3-0.8,0.7-0.8c1.4-0.1,2.8-0.2,4.2-0.2
		c0.5,0,0.8,0.4,0.7,0.9c-0.2,1.3-0.3,2.6-0.6,3.9c-0.1,0.5-0.4,0.8-0.9,0.7c-0.5-0.1-0.7-0.5-0.7-1c0-0.4,0.1-0.9,0.1-1.4
		c-1.1,0.5-1.8,1.4-2.6,2c-8.8,7.1-18.6,12.4-29.2,16.2c-0.6,0.2-1.3,0.5-1.6-0.3c-0.3-0.9,0.5-1.1,1.1-1.3c11-3.9,21.1-9.5,30-17.1
		C38.8,3,39.3,2.8,39.5,2.2z"/>
	<path class="st3" d="M23.9,28.6c0,2.2,0,4.4,0,6.6c0,1.1-0.3,1.6-1.5,1.6c-1.3-0.1-2.7,0-4,0c-0.9,0-1.3-0.3-1.3-1.2
		c0-4.7,0-9.4,0-14.1c0-0.9,0.4-1.3,1.3-1.3c1.4,0,2.7,0,4.1,0c1.1,0,1.4,0.5,1.4,1.5C23.9,24,23.9,26.3,23.9,28.6z M18.8,28.6
		c0,1.4,0,2.8,0,4.2c0,2.4,0,2.3,2.3,2.3c1,0,1.2-0.3,1.1-1.2c-0.1-3.2,0-6.4,0-9.7c0-2.5,0-2.4-2.4-2.4c-1,0-1.1,0.4-1.1,1.2
		C18.9,24.8,18.8,26.7,18.8,28.6z"/>
	<path class="st3" d="M14.4,31.1c0,1.5,0,3,0,4.5c0,0.8-0.3,1.1-1.1,1.1c-1.5,0-3,0-4.5,0c-0.8,0-1.1-0.3-1.1-1.1c0-3,0-6.1,0-9.1
		c0-0.8,0.4-1.1,1.1-1.1c1.5,0,3,0,4.5,0c0.8,0,1.1,0.3,1.1,1.1C14.4,28,14.4,29.6,14.4,31.1z M9.4,31.1c0,0.5,0,1.1,0,1.6
		c0,2.6,0,2.5,2.6,2.5c0.7,0,0.9-0.2,0.9-0.9c-0.1-1.6,0-3.2,0-4.8c0-2.6,0-2.6-2.7-2.5c-0.6,0-0.8,0.2-0.7,0.8
		C9.4,28.9,9.4,30,9.4,31.1z"/>
</g>
</svg>
