<?xml version="1.0" encoding="utf-8"?>
<!-- Generator: Adobe Illustrator 27.8.1, SVG Export Plug-In . SVG Version: 6.00 Build 0)  -->
<svg version="1.1" id="Layer_1" xmlns="http://www.w3.org/2000/svg" xmlns:xlink="http://www.w3.org/1999/xlink" x="0px" y="0px"
	 viewBox="0 0 50 50" style="enable-background:new 0 0 50 50;" xml:space="preserve">
<style type="text/css">
	.st0{fill:#F8F6F2;}
</style>
<g>
	<path class="st0" d="M11.1,24.9H12c2.4,0,4.6,0.9,6.5,2.8c1.9,1.8,2.9,4.2,2.9,6.9c0,2.7-1,5-2.9,6.7c-1.9,1.8-4.3,2.6-7.2,2.6
		c-3.1,0-5.7-1.2-7.7-3.7c-2.1-2.5-3.1-6-3.1-10.6c0-4.2,0.9-8.2,2.7-11.8c1.8-3.7,4-6.6,6.6-8.7c2.6-2.1,4.9-3.2,7-3.2
		c1.4,0,2.4,0.4,3.2,1.2c0.8,0.8,1.1,1.8,1.1,3.1c0,1.9-0.8,3.3-2.5,4.1c-2.3,1.2-4,2.7-5.4,4.3S11.3,22.4,11.1,24.9z M39.3,24.9
		h0.8c2.4,0,4.5,0.9,6.5,2.8c1.9,1.8,2.9,4.2,2.9,6.9c0,2.7-1,4.9-2.9,6.8c-1.9,1.8-4.3,2.7-7.2,2.7c-3.1,0-5.7-1.3-7.8-3.8
		c-2-2.6-3.1-6.1-3.1-10.7c0-3.3,0.5-6.4,1.6-9.2c1.1-2.9,2.4-5.4,4.1-7.6c1.7-2.1,3.5-3.8,5.4-5.1c1.9-1.3,3.7-1.9,5.2-1.9
		c1.4,0,2.5,0.4,3.2,1.2c0.7,0.8,1.1,1.8,1.1,3.2c0,1.9-0.8,3.3-2.5,4.1c-2.3,1.3-4.1,2.8-5.3,4.4C40.3,20.3,39.5,22.4,39.3,24.9z"
		/>
</g>
</svg>
