<?xml version="1.0" encoding="utf-8"?>
<!-- Generator: Adobe Illustrator 27.8.1, SVG Export Plug-In . SVG Version: 6.00 Build 0)  -->
<svg version="1.1" id="Layer_1" xmlns="http://www.w3.org/2000/svg" xmlns:xlink="http://www.w3.org/1999/xlink" x="0px" y="0px"
	 viewBox="0 0 50 50" style="enable-background:new 0 0 50 50;" xml:space="preserve">
<style type="text/css">
	.st0{fill:#F7F5F2;}
</style>
<g>
	<path class="st0" d="M10.8,25.2h-1c-2.4,0-4.5-1-6.5-2.9s-2.9-4.2-2.9-6.9s1-5,2.9-6.8s4.3-2.7,7.1-2.7c3.2,0,5.8,1.3,7.8,3.8
		s3,6.1,3,10.7c0,4.2-0.9,8.1-2.6,11.8c-1.8,3.7-3.9,6.6-6.5,8.8s-4.9,3.3-7,3.3c-1.3,0-2.4-0.4-3.2-1.2s-1.2-1.8-1.2-3
		c0-1.9,0.9-3.3,2.6-4.2c2.3-1.3,4-2.8,5.3-4.3C9.9,29.7,10.7,27.7,10.8,25.2z M38.9,25.2h-0.8c-2.4,0-4.6-1-6.6-2.9s-3-4.2-3-6.9
		s1-4.9,2.9-6.8c2-1.9,4.3-2.8,7.1-2.8c3.2,0,5.8,1.3,7.8,3.8s3,6.1,3,10.7c0,4.3-0.9,8.3-2.6,11.9c-1.8,3.6-3.9,6.5-6.5,8.7
		c-2.6,2.1-4.9,3.2-7,3.2c-1.4,0-2.4-0.4-3.3-1.2c-0.8-0.8-1.2-1.8-1.2-3.1c0-1.9,0.9-3.3,2.6-4.2c2.4-1.4,4.2-2.9,5.4-4.4
		C38.1,29.8,38.7,27.7,38.9,25.2z"/>
</g>
</svg>
