<?xml version="1.0" encoding="utf-8"?>
<!-- Generator: Adobe Illustrator 27.8.1, SVG Export Plug-In . SVG Version: 6.00 Build 0)  -->
<svg version="1.1" id="Layer_1" xmlns="http://www.w3.org/2000/svg" xmlns:xlink="http://www.w3.org/1999/xlink" x="0px" y="0px"
	 viewBox="0 0 50 50" style="enable-background:new 0 0 50 50;" xml:space="preserve">
<style type="text/css">
	.st0{display:none;}
	.st1{display:inline;fill:#FDC70A;}
	.st2{display:inline;fill:#11B482;}
	.st3{fill:#326E6A;}
</style>
<g class="st0">
	<path class="st1" d="M0.5,40.2c0.4-0.5,0.8-0.9,1.1-1.4c1.2-1.6,2.2-3.3,2.7-5.3c0.3-0.9,0.4-1.8,0.6-2.6c0-0.2,0-0.2-0.2-0.3
		c-1.6-1-1.5-3.3,0.2-4.1c0.2-0.1,0.2-0.2,0.2-0.3c0-1.1,0.1-2.1,0.3-3.2c0.3-1.4,1-2.6,2-3.7l0.1-0.1c-0.6-0.2-1.1-0.4-1.7-0.6
		c-1.2-0.4-2.4-0.8-3.5-1.2C2,17.3,1.8,17.2,1.6,17c-0.4-0.3-0.4-0.6,0-0.9c0.2-0.2,0.5-0.4,0.8-0.5c4.1-1.4,8.2-2.8,12.4-4.2
		c3.1-1.1,6.3-2.1,9.4-3.2c1.4-0.5,1-0.5,2.5,0c3.3,1.2,6.7,2.3,10.1,3.5c2.8,1,5.6,1.9,8.4,2.9c1,0.3,2,0.7,3,1
		c0.3,0.1,0.7,0.3,0.9,0.5c0.4,0.3,0.4,0.7,0,0.9c-0.2,0.2-0.5,0.3-0.8,0.4c-2.9,1-5.7,2-8.6,3c-2.7,0.9-5.4,1.9-8.1,2.8
		c-1.8,0.6-3.6,1.2-5.4,1.9c-0.5,0.2-0.9,0-1.4-0.1c-3.4-1.2-6.8-2.3-10.3-3.5c-0.4-0.1-0.9-0.3-1.4-0.5c0.1,0,0.2-0.1,0.2-0.1
		c3.9-1.6,7.8-3.1,11.7-4.7c0.2-0.1,0.4-0.2,0.6-0.2c0.6-0.3,0.9-0.9,0.6-1.5c-0.2-0.6-0.9-0.8-1.5-0.6c-0.8,0.3-1.6,0.6-2.4,1
		c-2.8,1.1-5.6,2.3-8.3,3.4c-1.2,0.5-2.4,1-3.7,1.5C9.9,20,9.4,20.5,8.9,21c-0.9,1.1-1.3,2.3-1.4,3.7c-0.1,0.5-0.1,1.1-0.1,1.6
		c0,0.1,0.1,0.2,0.1,0.3c1.3,0.9,1.3,2.8,0.1,3.7c-0.1,0.1-0.1,0.2-0.1,0.3c0.1,1.1,0.1,2.1,0.2,3.2c0.1,1.6,0,3.1-0.4,4.6
		c-0.5,1.6-1.4,2.8-3,3.6c-0.1,0-0.2,0.1-0.3,0.1c0,0,0,0-0.1,0S3.7,42,3.7,42c-0.7-0.3-1.3-0.6-2-1C1.3,40.8,0.9,40.5,0.5,40.2
		L0.5,40.2z"/>
	<path class="st1" d="M41,22.9c0,0.1,0,0.2,0,0.3c0,2.4,0,4.8,0,7.2c0,0.6-0.2,1-0.6,1.4c-0.3,0.5-0.8,0.7-1.3,1
		c-2.7,1.3-5.5,2.3-8.4,2.8c-2.4,0.4-4.8,0.6-7.3,0.4c-2.8-0.2-5.6-0.7-8.2-1.7c-1.2-0.4-2.3-1-3.4-1.5c-0.4-0.2-0.6-0.7-0.8-1.1
		c0,0,0-0.1,0.1-0.2c1.1-1.5,1-3.6-0.2-4.9c0,0-0.1-0.1-0.1-0.2c0-1.1,0-2.2,0-3.4c0.6,0.2,1.2,0.4,1.8,0.6c2.2,0.8,4.5,1.5,6.7,2.3
		c1.9,0.6,3.8,1.3,5.7,2c0.5,0.2,0.9,0.2,1.4,0c2.3-0.8,4.6-1.6,6.9-2.4c2.5-0.8,4.9-1.7,7.4-2.5C40.7,22.9,40.8,22.9,41,22.9z"/>
</g>
<g class="st0">
	<path class="st2" d="M44,37.5c-1-6-4-10.6-9.2-13.8c-0.6-0.3-1.2-0.6-1.8-1c-2.7,7.3-5.3,14.5-8,21.7h-0.1
		c-2.7-7.2-5.3-14.4-8-21.7c-0.2,0.1-0.4,0.2-0.6,0.3c-5.6,3-9,7.6-10.2,13.8c-0.2,1-0.3,2.1-0.3,3.1c0.1,1.5,1,2.6,1.9,3.6
		c1.7,1.7,3.8,3,6,3.9c4.1,1.7,8.3,2.4,12.7,2.2c3.9-0.2,7.6-1.1,11.1-2.8c2-1,3.9-2.3,5.3-4c0.7-0.9,1.2-1.8,1.2-2.9
		C44.1,38.9,44.1,38.2,44,37.5z"/>
	<path class="st2" d="M25,21.5c5.7,0.1,10.5-4.6,10.5-10.4c0.1-5.7-4.7-10.5-10.3-10.6c-5.8-0.1-10.6,4.6-10.7,10.3
		C14.4,16.7,19,21.4,25,21.5z"/>
	<path class="st2" d="M26.8,24.1c-0.6-0.6-1.2-1.3-1.9-2c-0.6,0.7-1.2,1.3-1.8,2c0.7,0.6,1.3,1.2,1.9,1.8
		C25.6,25.4,26.2,24.8,26.8,24.1z"/>
	<path class="st2" d="M24.1,37.9c0.1,0.2,0.2,0.4,0.2,0.6c0.2,0.5,0.4,1,0.7,1.7l0,0l0,0l2.8-7.2l-1.5-5.9L25,26.2l-1.4,1l-1.3,5.9
		L24.1,37.9z"/>
</g>
<path class="st3" d="M20.5,2.5c0.2,0,0.5,0.1,0.7,0.1c0.2,0,0.2,0.1,0.3,0.3c0,0.3,0.1,0.6,0.2,0.9c0,0.1,0,0.2,0.1,0.2
	c0.1,0,0.2-0.1,0.2-0.2c0-0.1,0-0.1,0.1-0.2c0.1-0.4,0-0.9,0.1-1.3c0-0.1,0-0.2,0-0.2c0.1-0.5,0.3-0.6,0.9-0.7
	c0.5,0.1,0.6,0.6,0.7,1c0.1,0.3,0.1,0.6,0.2,0.9c0,0.2,0.1,0.4,0.4,0.4c0.3,0,0.4-0.1,0.3-0.4c-0.1-0.3,0-0.5,0.1-0.7
	c0.3-0.1,0.5-0.1,0.8-0.1c0.1,0,0.1,0,0.2,0.1c0.5,0.2,0.9,0.5,1.1,1c0,0.2,0.2,0.2,0.3,0.3c0.2,0.2,0.4,0.3,0.7,0.4
	c0.1,0.1,0.3,0.1,0.4,0.1c0.1-0.1,0-0.3,0-0.4c0,0,0-0.1,0-0.1C28,3.5,28,3.3,27.9,3.1c-0.1-0.2,0-0.3,0.2-0.3c0.4,0,0.9,0,1.3,0.1
	C29.7,3,30.1,3,30.5,3.2c0.2,0.1,0.5,0.3,0.6,0.5c0.1,0.2,0,0.4,0.2,0.5c0.1,0,0,0.1,0,0.1c-0.1,0.1-0.1,0.1-0.2,0.2
	c0.3,0,0.5,0,0.7-0.2c0.3,0,0.5-0.1,0.7-0.2c0.4-0.1,0.9-0.3,1.3-0.4c0.3,0,0.5,0,0.7,0.3c0.3,0.4,0.6,0.6,1.1,0.7
	c0.4,0.1,0.7,0.2,1.1,0.3c0.2,0.2,0.5,0.2,0.7,0.5c-0.1,0.1-0.3,0.1-0.4,0.3c0.2,0,0.4,0,0.5,0c0.2-0.1,0.3,0,0.3,0.2
	c0,0.2,0.1,0.4,0.2,0.5c0,0.1,0.1,0.1,0.1,0.1c0.1,0.1,0.2,0.1,0.4,0.1c0.4,0,0.7-0.1,1-0.2c0.5-0.1,0.9,0.2,1.3,0.5
	c0.2,0.2,0.5,0.4,0.7,0.6c0,0.1,0.2,0.3,0.2,0.4c-0.3,0-0.6,0-0.9,0c-0.2,0-0.4-0.1-0.4,0.1c-0.1,0.3,0.1,0.6,0.4,0.6
	c0.2,0,0.3,0,0.5-0.1c0.2,0,0.3-0.1,0.5,0C42.1,8.6,41.9,8.8,42,9c0.1,0.5,0.4,0.7,0.9,0.4c0,0,0.1-0.1,0.2-0.1c0,0.1,0,0.3,0.1,0.4
	c0.1,0.2,0.1,0.3,0.3,0.2c0.3-0.1,0.5-0.3,0.8-0.6c0.1-0.1,0.3-0.2,0.5-0.2c0.5,0.1,0.7,0.4,0.7,0.9c0,0.3-0.1,0.6-0.3,0.9
	c0.2,0.1,0.6,0,0.6,0.4c-0.3,0.4-0.6,0.8-1,1.3c-0.2,0.3,0,0.5,0.2,0.6c0.1,0,0.1,0.2,0.2,0c0.2-0.2,0.5-0.3,0.8-0.3
	c0.5,0,1,0,1.3,0.4c0,0.2,0.2,0.1,0.3,0.1c0.7,0,1,0.3,1,1c0,0.4-0.1,0.7-0.3,1c-0.1,0.2-0.1,0.2,0.1,0.3c0.1,0,0.1,0,0.2,0.1
	c0.4,0.2,0.7,0.4,0.9,0.8c0,0.2,0.1,0.3,0.1,0.5c0,0.3-0.2,0.4-0.4,0.2c-0.1,0-0.1-0.1-0.2-0.2c-0.1-0.2-0.2-0.2-0.3,0
	c-0.3,0.1-0.5,0-0.8,0c-0.2,0-0.4-0.1-0.6,0c-0.1,0-0.2,0.1,0,0.2c0.2,0.1,0.2,0.3,0.3,0.5c0.1,0.3,0.1,0.6-0.2,0.8
	c-0.1,0-0.2,0-0.3,0.1c0,0,0,0-0.1,0c0,0,0,0.1,0.1,0.1c0.1,0.3,0.3,0.5,0.4,0.8c0,0.2,0.2,0.5,0,0.7c-0.2,0.1-0.5,0-0.7-0.2
	c-0.1,0-0.1-0.2-0.3-0.1c-0.1,0.1,0,0.2,0,0.3c0,0.1,0,0.1,0,0.2c0,0.3-0.1,0.5-0.4,0.6c-0.4,0-0.2-0.3-0.3-0.4
	c-0.1-0.1-0.1-0.2-0.2-0.1c-0.2,0.1-0.4,0.1-0.7,0c0,0.2,0,0.4,0,0.6c0,0.1,0,0.2,0.1,0.2c0.3,0,0.5,0.3,0.8,0.4
	c0.1,0.1,0.2,0.2,0.3,0.3c0.2,0.3,0.4,0.5,0.3,0.9c-0.1,0.1-0.2,0.2-0.3,0.3c-0.4,0-0.7,0-1-0.1c-0.2-0.1-0.3,0-0.3,0.2
	c-0.2,0.2-0.4,0.2-0.6,0c-0.3-0.3-0.5-0.3-0.7,0c-0.2,0.2-0.3,0.6-0.4,0.8c-0.3,0.1-0.5,0.1-0.7,0c-0.2-0.1-0.4-0.2-0.6-0.1
	c-0.2,0.2-0.3,0-0.3-0.1c0-0.3-0.1-0.3-0.3-0.1l0,0l0,0c-0.3,0.1-0.5,0.2-0.8,0.2c-0.2,0-0.5,0.1-0.7,0.2c-0.4,0.1-0.7,0.2-1.1,0.4
	c-0.4,0.1-0.9,0.3-1.3,0.4c-0.5,0.1-0.9,0.2-1.4,0.2c-0.2,0-0.5,0.1-0.7,0.3c-0.2,0.1-0.3,0.4-0.5,0.5c-0.4,0-0.8-0.1-1.3,0
	c-0.6-0.1-0.9,0.3-1.3,0.6c-0.4,0.2-0.8,0.5-1.3,0.7c0.5,0.1,0.9,0.1,1.3,0.1c0.9,0.1,1.6-0.3,2.3-0.9c0.1,0.2-0.1,0.2-0.1,0.3
	c-0.3,0.3-0.7,0.5-1,0.8c-0.4,0.2-0.8,0.2-1.3,0.3c-0.3,0-0.5,0-0.8,0c-0.6,0.1-1.2,0.1-1.8,0.2c-0.3,0-0.6,0.1-0.8,0.3
	c-0.3,0.2-0.7,0.5-0.8,0.9c-0.1,0.4-0.1,0.9-0.2,1.3c-0.1,0.4-0.1,0.8-0.2,1.3c-0.1,0.4,0,0.9,0,1.3c0,0.4,0,0.9,0.1,1.3
	c0.1,0.4,0.2,0.8,0.6,1.2c0,0.1,0.1,0.1,0.1,0.1c0.3,0.3,0.7,0.4,1.2,0.6c0.4,0.1,0.8,0.3,1.2,0.3c0.1,0.1,0.2,0.2,0.4,0.2
	c0.3,0,0.6,0.1,1,0c0.4,0,0.9,0,1.3,0c0.4,0,0.8,0,1.3,0c0.4,0.1,0.9,0,1.3,0c0.4,0,0.9,0,1.3,0c0.1,0.1,0.3,0.1,0.3,0.2
	c0.1,0.3,0.3,0.2,0.4,0.2c0.2-0.1,0.3-0.1,0.5-0.1c0.4,0,0.9-0.1,1.3-0.3c0.4,0,0.8,0,1.2,0c0,0,0,0.1,0,0.1c-0.8,0-1.6,0.1-2.4,0.5
	c0.7,0.3,1.4,0.1,2.1,0.2c0.2,0,0.4,0,0.6,0c0.4,0,0.8-0.2,1.2,0c0.1,0,0.1,0.1,0.2,0.1c0,0,0,0.1,0,0.1c-0.1,0-0.1,0-0.2,0
	c-0.4-0.2-0.9,0.1-1.3,0c-0.2,0-0.3,0-0.5,0c-0.2,0-0.5,0-0.5,0.3c0,0.3,0.2,0.2,0.4,0.3c0.3,0.1,0.5,0.2,0.7,0.4
	c0,0.1,0.1,0.1,0.1,0.2c-0.1,0.1-0.1-0.1-0.2-0.1c-0.1-0.1-0.2-0.2-0.4-0.3c-0.3-0.1-0.6-0.2-0.9-0.4c0,0,0,0,0,0
	c-0.1-0.1-0.1-0.2-0.1-0.4c0-0.1,0-0.1-0.1-0.1c-0.4,0-0.8,0-1.2,0c-0.9-0.1-1.9-0.1-2.9-0.2c0.5,0.5,1.1,0.4,1.7,0.5c0,0,0,0,0,0.1
	c-0.4,0-0.7,0-1.1,0c0,0,0,0.1,0,0.1c0.4-0.1,0.7,0,1.1,0c0.1,0,0.3,0,0.4,0c0.1,0,0.3,0,0.4,0.1c0,0,0.1,0.1,0.1,0
	c0.1,0,0.1,0,0.2,0c0.1,0,0.3,0.1,0.4,0.1c0.1,0,0.2,0.1,0.1,0.2c-0.2,0.3,0,0.3,0.2,0.4c0.2,0,0.4,0.1,0.5,0.2
	c0.1,0.1,0.2,0.2,0.3,0.3c0,0.1,0,0.2-0.1,0.1c-0.4-0.3-0.9-0.3-1.3-0.4c-0.1-0.1-0.2-0.1-0.2-0.2c-0.2-0.3-0.2-0.3-0.6-0.2
	c0.1,0.1,0.3,0.1,0.3,0.3c0,0.2-0.3,0.2-0.3,0.3c0.2,0,0.4,0.1,0.7,0.1c0.1,0,0.1,0.1,0.2,0.1c0,0.1,0,0.1,0,0.1
	c-0.4,0.3,0,0.4,0.2,0.6c0.3,0.2,0.6,0.3,0.7,0.6c0,0.4,0,0.9,0,1.3c0,0-0.1,0-0.1-0.1c-0.1-0.3-0.2-0.6-0.2-0.9
	c0-0.3-0.1-0.5-0.4-0.6c-0.2-0.1-0.4-0.2-0.6-0.3c-0.3-0.2-0.3-0.2-0.6,0.1c0.5,0.2,0.8,0.5,0.8,1c0,0.2,0,0.4,0,0.6
	c0,0.1-0.1,0.2-0.1,0.4C38.1,42.7,38,43,38,43.3c0,0.1,0,0.2,0,0.4c-0.2,0-0.2-0.2-0.2-0.4c0-0.4,0.1-0.9,0.1-1.3
	c0.1-0.5,0.1-0.9-0.3-1.2c-0.2-0.1-0.4-0.2-0.6-0.3c0,0,0-0.1-0.1-0.1c0,0,0-0.1,0-0.1c0,0,0-0.1,0.1-0.1c0.2-0.2,0.6-0.4,0.9-0.6
	c-0.3-0.1-0.6-0.1-0.9-0.1c-0.1,0-0.1,0-0.2-0.1c-0.2-0.4,0.3-0.3,0.4-0.5c-0.4-0.1-0.8-0.2-1.2-0.3c-0.1,0-0.1,0-0.2,0
	c-0.4-0.1-0.9-0.2-1.3-0.3c-0.1,0.2-0.3,0.4-0.5,0.5c0.2,0.1,0.3,0.1,0.5,0.2c0.2,0.1,0.4,0.2,0.5,0.5c0,0,0,0.1-0.1,0.1
	c-0.2,0.1-0.2,0.2-0.1,0.3c0.1,0.1,0.2,0.3,0.4,0.4c0,0.1,0,0.1,0,0.2c0,0.1-0.1,0.1-0.1,0.2c-0.1,0.1-0.2,0.1-0.2,0.2
	c0.3,0.1,0.6,0.1,0.9,0.2c0.1,0,0.3,0.1,0.4,0.1c0.1,0.1,0.2,0.1,0.3,0.1c0.2,0.1,0.4,0.3,0.6,0.3c0.1,0.1,0.2,0,0.2,0.2
	c-0.1,0-0.2,0-0.2,0c0,0-0.1,0-0.1,0c-0.4-0.2-0.8-0.3-1.1-0.5c-0.2-0.1-0.3-0.2-0.6-0.2c0.1,0.3,0.2,0.5,0.3,0.7
	c-0.2,0.1-0.2-0.1-0.3-0.2c-0.3-0.3-0.4-0.7-0.8-0.8c-0.1,0-0.1-0.1-0.2-0.1c-0.1,0.1,0,0.1,0,0.2c0.3,0.3,0.4,0.7,0.8,0.8
	c0.2,0.1,0.4,0.2,0.6,0.3c0.2,0.2,0.6,0.3,0.5,0.7c-0.4-0.2-0.7-0.5-1.1-0.6c0,0-0.1-0.1-0.1-0.1c-0.1-0.1-0.2-0.1-0.4-0.2
	c-0.1,0.4,0,0.6,0.4,0.7c0,0,0.1,0.1,0.1,0.1c0.3,0.2,0.2,0.3,0,0.5c-0.1,0.1-0.3,0.1-0.4,0.3c0.2,0.1,0.4-0.1,0.5,0.2
	c-0.1,0-0.2,0-0.3,0c-0.2,0-0.4,0.1-0.5-0.1c-0.1-0.2,0.2-0.3,0.2-0.4c0,0,0-0.1,0.1-0.1c0.1,0,0.1-0.1,0.1-0.1
	c0-0.1-0.1-0.1-0.2-0.1c0,0-0.1,0-0.1,0c-0.4-0.2-0.4-0.6-0.4-1c0-0.2,0-0.4-0.2-0.6c-0.1-0.2-0.3-0.3-0.2-0.6
	c-0.2,0.1-0.5,0.1-0.7,0.2c0.5,0.2,0.4,0.6,0.4,0.9c0,0.2-0.1,0.3-0.1,0.5c0,0.3-0.2,0.6,0.1,0.9c0.3,0.4,0.5,0.7,1,0.7
	c0.1,0,0.3,0.1,0.3,0.2c0.1,0.1-0.2,0.1-0.2,0.3l0,0c-0.1,0-0.1,0-0.2,0.1c-0.1,0-0.2,0.3-0.2,0c0.1-0.1,0.2-0.2-0.1-0.3
	c-0.2,0-0.4-0.2-0.6-0.3c-0.1,0-0.1-0.1-0.2,0c-0.1,0.2-0.4,0.4-0.3,0.7c0,0,0,0.1,0,0.1c-0.2,0-0.2-0.2-0.3-0.3
	c-0.1-0.2,0-0.3,0.2-0.5c0.3-0.3,0.3-0.5,0-0.8c-0.3-0.4-0.6-0.6-1.1-0.7c-0.5-0.2-0.9-0.3-1.3-0.7l0,0c-0.1-0.1-0.1,0-0.1,0
	c-0.3,0.5-0.6,0.9-0.8,1.3c-0.1,0.2-0.2,0.3-0.4,0.5c-0.2,0.1-0.4,0.2-0.7,0.3c0.5,0.4,0.9,1,1.6,1c0.1,0,0.3,0,0.4,0
	c0.2,0.1,0.3,0.2,0.3,0.4c0,0.1,0,0.3,0,0.4c0,0.1,0.1,0.2,0.1,0.4l0,0c-0.3,0-0.2-0.2-0.4-0.3l0,0l0,0c0-0.1-0.1-0.3-0.1-0.4
	c0-0.1,0-0.2-0.2-0.2c-0.7-0.1-0.7-0.1-0.5,0.6c0,0.4,0,0.7-0.1,1.1l0,0c-0.2-0.1-0.2-0.2-0.2-0.4c0-0.2,0-0.5-0.1-0.7l0,0
	c-0.1-0.2-0.2-0.5-0.3-0.7c-0.4-0.6-0.4-0.6-1-0.1c0,0,0,0,0,0.1c0.6,0.3,0.6,0.3,0.4,0.6c-0.2,0.1-0.3,0.3-0.1,0.5
	c0.2,0.2,0.3,0.5,0.3,0.9c-0.1,0.3,0.1,0.7-0.2,0.9c-0.1-0.1,0-0.2,0-0.3c0-0.5-0.1-0.9-0.4-1.2c-0.1-0.2-0.3-0.4-0.2-0.6
	c0.2-0.3,0.2-0.3-0.2-0.5c-0.3-0.1-0.3-0.3-0.1-0.5c0.2-0.1,0.3-0.2,0.5-0.3c0.1,0,0.2-0.1,0.2-0.2c0-0.1-0.1-0.1-0.2-0.1
	c-0.3-0.2-0.3-0.3,0-0.6c0.5-0.1,1-0.2,1.3-0.8c-0.5,0.2-0.9,0.4-1.3,0.5c-0.2,0-0.3,0.1-0.5,0.1c-0.6,0.2-0.8,0.6-0.9,1.2
	c0,0-0.1,0-0.1,0.1c0-0.1-0.1-0.2-0.1-0.3c0.2-0.7,0.6-1.1,1.3-1.3c0.1,0,0.2,0,0.3-0.1c0.5-0.1,0.9-0.3,1.3-0.6
	c0.2-0.1,0.4-0.3,0.6-0.6c0.1-0.1,0.1-0.2,0.2-0.3c0.1-0.1,0.2-0.3,0-0.4c-0.2-0.2-0.2-0.3-0.2-0.5c0-0.2,0.1-0.4,0.2-0.5
	c0.1-0.1,0.2-0.2,0.3-0.3c0.2-0.2,0.2-0.3,0-0.5c-0.4-0.3-0.7-0.4-1.2-0.1c-0.4,0.1-0.7,0.1-1.1,0.2c0.3,0.3,0,0.4-0.2,0.5
	c-0.1,0-0.1,0-0.2,0.1c-0.4,0.2-0.4,0.2,0,0.4c0.2,0.1,0.3,0.2,0.1,0.4c0,0-0.1,0-0.1,0c0,0-0.1-0.1-0.1-0.1
	c0.1-0.2-0.1-0.2-0.2-0.3c-0.1-0.1-0.4-0.3-0.1-0.5c0.1-0.1,0.3-0.2,0.5-0.3c-0.2-0.1-0.4-0.2-0.1-0.5c0.1,0,0.2-0.1,0.3-0.1
	c0.4-0.1,0.9,0,1.3-0.3c0.1,0,0.1-0.1,0-0.1l0,0c-0.1-0.1-0.2-0.1-0.3-0.2c-0.2-0.1-0.2-0.4-0.2-0.5c-0.2-0.4-0.4-0.7-0.9-0.7
	c0,0.1,0.2,0.2,0.2,0.3c-0.1,0-0.3,0-0.4,0c-0.1,0-0.1,0-0.2,0.1c0,0.1,0,0.1,0.1,0.2c0.1,0.1,0.2,0.2,0.3,0.3c0,0-0.1,0.1-0.1,0.1
	c-0.6-0.4-1.3-0.7-2.1-0.4c0,0.1,0.1,0.1,0.2,0.2c0.2,0.2,0.1,0.4-0.1,0.5c-0.2,0.1-0.3,0.2-0.5,0.3c-0.2,0.1-0.3,0.2-0.2,0.4
	c0.1,0.2,0.1,0.4,0.2,0.6c0,0,0,0,0,0.1c-0.1,0.1-0.1,0.2-0.2,0.3c-0.1,0.1,0,0.3-0.2,0.3c0-0.1,0-0.1,0-0.2
	c0.2-0.3,0.1-0.6-0.2-0.9c0,0-0.1-0.1-0.1-0.2c0-0.5,0.3-0.7,0.7-0.9c-0.3-0.1-0.4-0.3-0.2-0.5c-0.4,0-0.7,0.3-1,0.4
	c-0.1,0-0.1,0.1-0.2,0.1c-0.1,0-0.1,0-0.1,0.1c-0.1,0-0.1,0.1-0.1,0.2c0,0.1,0,0.3,0.1,0.4c0,0.1,0,0.2,0.2,0.2
	c0.1,0.1,0.1,0.1,0.2,0.1c0.1,0.1,0.4,0.2,0.3,0.5c-0.1,0.3-0.1,0.4,0.2,0.6c0.1,0,0.1,0.1,0.2,0.2c0,0.2,0,0.3-0.1,0.5
	c0.3,0,0.5,0.1,0.7,0.3c0.1,0.1,0.2,0.1,0.3,0.2c0.3,0.1,0.7,0.1,1,0.2c0.1,0.1,0.3,0.1,0.4,0.2c0.1,0.1,0.1,0.2,0.2,0.2
	c0,0.2-0.1,0.4-0.2,0.5c-0.1,0.1-0.2,0.1-0.3,0.3c0,0-0.1,0-0.1,0.1c-0.1-0.2,0-0.2,0.1-0.3c0.2-0.3,0.2-0.5-0.2-0.7
	c-0.2-0.1-0.4-0.1-0.6-0.2c-0.4-0.1-0.8-0.2-1.2-0.4c-0.1-0.1-0.2-0.1-0.3,0c-0.1,0.1-0.2,0.2-0.1,0.4c0,0.3,0.2,0.3,0.4,0.4
	c0,0,0.1,0.1,0.1,0.1c0.1,0.1,0,0.3,0,0.4C25,43,24.9,43,24.9,43.1c-0.1,0.2,0.1,0.2,0.2,0.3c0.2,0.2,0.4,0.4,0.3,0.6
	c-0.1,0.1-0.1,0.3-0.2,0.4c0,0.1-0.1,0.2-0.1,0.3c0.2,0.2,0.3,0.5,0.3,0.8c0,0,0.1,0.1,0.1,0.1c0,0.1,0.1,0.1,0.1,0.2
	c0,0.5,0.4,0.9,0.8,1.2c0.2,0.2,0.4,0.4,0.5,0.7c0,0.1,0,0.2-0.1,0.3c0,0-0.1,0-0.1,0c0-0.5-0.4-0.8-0.8-1.1
	c-0.3-0.2-0.6-0.4-0.7-0.9c-0.1,0.2-0.3,0.4-0.4,0.5c-0.2,0.2-0.4,0.3-0.6,0.5l0,0c-0.2,0.2-0.1,0.4,0,0.6c0,0.1,0,0.2,0,0.2
	c-0.1,0.2-0.2,0.3-0.3,0.4c-0.1,0-0.2,0.1-0.2,0.1c-0.1,0-0.1,0.1-0.2,0c-0.1-0.1,0-0.1,0-0.2c0.1-0.1,0.1-0.1,0.2-0.2
	c0.2-0.2,0.3-0.4,0-0.6c-0.1-0.1-0.1-0.3,0-0.5c0.2-0.3,0.5-0.4,0.7-0.6c0.2-0.2,0.5-0.3,0.5-0.7c0-0.3,0-0.6-0.2-0.9
	c-0.1-0.1-0.1-0.3,0-0.4c0,0,0.1-0.1,0.1-0.1c0.3-0.4,0.2-0.4-0.1-0.7c-0.1-0.1-0.2-0.2-0.3-0.3c0-0.2,0.1-0.4,0.2-0.6
	c0.1-0.1,0-0.2,0-0.3c-0.1-0.1-0.1-0.1-0.2,0c-0.4,0.3-0.9,0.5-1.2,0.8c0,0,0,0-0.1,0.1c-0.1,0.1,0,0.2,0.1,0.3
	c0.2,0.3,0.2,0.5,0,0.7c-0.1,0.1-0.2,0.1-0.2,0.2c0,0-0.1,0-0.1,0.1c-0.1,0-0.2,0.1-0.2,0.2c0.1,0.1,0.1,0.5,0.4,0.4
	c0.1,0.1,0.3,0.1,0.4,0.2c0.2,0.1,0.3,0.2,0.3,0.4c-0.1,0.3-0.3,0.5-0.2,0.9c-0.2,0-0.2-0.2-0.2-0.3c0-0.2,0-0.3,0.1-0.5
	c0-0.1,0.1-0.1,0-0.2c-0.1-0.1-0.8-0.3-0.9-0.2c-0.2,0.1-0.5,0.3-0.7,0.4c0.1,0,0.1,0.1,0.2,0.1c0.2,0.2,0,0.4-0.1,0.5
	c-0.2,0.2-0.5,0.4-0.6,0.7c-0.1,0.1-0.1,0.3-0.2,0.4c-0.2-0.1-0.1-0.3-0.1-0.4c0.2-0.4,0.4-0.7,0.7-1c-0.2-0.1-0.4,0-0.5-0.3
	c0.1-0.3,0.5-0.3,0.7-0.5c0.4-0.2,0.4-0.2,0.2-0.7c0.1-0.3,0.3-0.3,0.5-0.4c0.3-0.2,0.3-0.2,0.1-0.5c-0.1-0.1-0.2-0.2-0.2-0.4
	c0.2-0.3,0.5-0.4,0.7-0.6c0.3-0.2,0.8-0.3,1-0.7c0.1-0.2,0.3-0.4,0-0.6c-0.1-0.1,0-0.2,0-0.2c0.1-0.1,0.3-0.2,0.2-0.4
	c-0.1-0.2-0.3,0-0.5-0.1c0,0-0.1,0-0.1,0c-0.3-0.3-0.3-0.3,0.1-0.6c0.1-0.1,0.3-0.1,0.1-0.3c-0.1-0.1-0.2-0.2-0.4-0.1
	c-0.2,0.1-0.5,0.3-0.5,0.6c0,0.2-0.1,0.4-0.3,0.5c-0.1,0.1-0.2,0.2-0.3,0.1c0.2-0.2,0.2-0.3,0.2-0.6c0.1-0.1,0.1-0.2,0-0.3
	c0-0.1,0.1-0.2,0.1-0.3c0.1-0.1,0.2-0.1,0.2-0.2c0.2-0.1,0.4-0.2,0.4-0.5c0-0.1-0.1-0.2-0.1-0.2c0,0,0-0.1-0.1-0.1
	c0-0.2,0-0.3,0.1-0.5c0.2-0.2,0.5-0.2,0.8-0.4c-0.1,0-0.2-0.1-0.3-0.1c-0.2-0.1-0.5-0.2-0.6-0.1c-0.2,0.2-0.5,0.3-0.5,0.7
	c-0.1,0.4-0.2,0.7-0.5,1c-0.4,0.2-0.4,0.4-0.2,0.8c0,0,0,0.1,0,0.1c-0.1,0.1-0.1,0.2-0.2,0.3c-0.1,0.1-0.1,0.1,0,0.2
	c0,0.2-0.1,0.3-0.2,0.4c-0.3,0.2-0.5,0.3-0.8,0.5c-0.2,0.1-0.4,0.3-0.6,0.5c-0.1,0.1-0.2,0.2-0.1,0.3c0.1,0.1,0.2,0.1,0.3,0.1
	c0,0,0.1,0,0.1,0c0.4,0.1,0.5,0.3,0.3,0.7c-0.2,0.2-0.1,0.4-0.1,0.6c0.1,0.3,0.4,0.2,0.6,0.3c-0.3,0.4-0.5,0-0.7-0.1
	c-0.1-0.2-0.1-0.4-0.1-0.6c0.1-0.5,0.1-0.5-0.3-0.5c-0.2,0-0.3-0.1-0.5-0.2c-0.2-0.2-0.4,0-0.5,0.1c-0.2,0.1-0.1,0.3,0,0.4
	c0.1,0.1,0.2,0.2,0.3,0.3c0,0.2-0.2,0.2-0.3,0.3c-0.2,0-0.3,0.1-0.3,0.3c0.1,0.3,0,0.5-0.2,0.6c-0.7,0.3-0.1,0.7,0,1.1
	c-0.3-0.1-0.4-0.3-0.5-0.6c0-0.2-0.1-0.2-0.3-0.1c-0.5,0.2-0.9,0.4-1,1c-0.1,0.1-0.2,0.3-0.3,0.4c-0.1,0-0.1,0.2-0.3,0.1
	c0.1-0.2,0.2-0.3,0.2-0.5c0.1-0.1,0.1-0.3,0.1-0.4c0.2-0.4,0.6-0.6,1-0.8c0.1,0,0.2-0.1,0.3-0.1c0.1,0,0.2-0.1,0.3-0.1
	c0.3-0.1,0.4-0.2,0.3-0.5c-0.1-0.2,0.1-0.4,0.2-0.5c0.1,0,0.3,0,0.1-0.2c-0.5-0.4-0.5-0.8,0-0.9c0.6-0.2,1-0.6,1.5-0.9
	c0.2-0.1,0.5-0.2,0.7-0.4c0.2-0.2-0.2-0.2-0.1-0.4c0,0,0-0.1-0.1-0.1c-0.1,0.1-0.3,0.2-0.5,0.3c-0.4,0.1-0.9,0.1-1.3,0.2
	c-0.2,0-0.4,0-0.6,0.1c-0.3,0.1-0.4,0.2-0.4,0.5c0,0.2,0,0.3,0,0.5c-0.1,0.1-0.1,0.2-0.2,0.3c-0.1,0.1-0.2,0.1-0.3,0.2
	c-0.3,0.2-0.3,0.3,0,0.6c0.1,0.1,0.2,0.1,0,0.2c-0.7,0.1-1,0.4-1,0.9c-0.3-0.3-0.2-0.6,0.2-0.9c0.1-0.1,0.4-0.1,0.3-0.3
	c-0.1-0.3-0.3,0-0.4,0c-0.1,0-0.2,0-0.2-0.1c0.1,0,0.2-0.1,0.3-0.1c0.1-0.1,0.3-0.1,0.4-0.2c0.3-0.1,0.5-0.2,0.6-0.6
	c0.1-0.3,0-0.7,0.2-1.1c-0.4,0.3-0.8,0.6-1.2,0.8c-0.2,0-0.4,0.1-0.7,0c0.3-0.2,0.6-0.2,0.9-0.4c0.3-0.2,0.6-0.4,0.7-0.7
	c0.1-0.1,0.2-0.2,0.2-0.3c0.1-0.5,0.5-0.8,0.9-1c0.1,0,0.2-0.1,0.3-0.1c0.3-0.1,0.7-0.2,1-0.3c0.2-0.1,0.5-0.2,0.6-0.4
	c0.2-0.2,0.2-0.5,0.3-0.8c0.1-0.3-0.1-0.3-0.3-0.3c-0.4,0.1-0.7,0.2-0.7,0.6c-0.2,0.4-0.4,0.8-0.9,1c-0.1,0-0.2,0.1-0.3,0.1
	c-0.4,0.1-0.8,0.1-1.3,0.2c-0.2,0-0.3,0.1-0.4,0.3c-0.1,0.3-0.2,0.5-0.4,0.7c-0.3,0.4-0.7,0.6-1.2,0.7c-0.3,0.1-0.5,0.2-0.8,0.3
	c-0.4,0.2-0.4,0.2-0.2,0.6c0,0.2,0.1,0.5-0.1,0.7c-0.1,0-0.1,0-0.2,0c0.1-0.3-0.1-0.5-0.2-0.8c-0.1-0.2,0-0.4,0.2-0.6
	c0.2-0.1,0.4-0.2,0.6-0.2c0.3-0.1,0.6-0.2,0.9-0.4c0.2-0.1,0.4-0.3,0.5-0.5c0.1-0.3,0.2-0.6,0.4-0.8c0.2-0.2,0.4-0.2,0.6-0.3
	c0.3,0,0.6-0.1,0.9-0.1c0.5-0.1,1-0.3,1.1-0.9c0-0.2,0.1-0.3,0.2-0.5c-0.5,0.1-1.1,0.2-1.6,0.2c-0.1,0-0.1,0-0.1,0.1
	c0.1,0.3-0.1,0.4-0.3,0.4c-0.5,0.2-0.9,0.6-1.3,0.8c-0.1,0-0.1,0.1-0.2,0.1c-0.1,0-0.1,0.1-0.2,0.2c0,0,0,0-0.1,0.1l0,0
	c0,0-0.1,0-0.1-0.1c0,0,0,0,0.1-0.1c0.2-0.2,0.5-0.5,0.7-0.8c0.2-0.3,0.6-0.3,0.8-0.6c-0.6,0.1-1.1,0.5-1.6,0.7
	c-0.3,0.1-0.5,0.1-0.8,0.2c-0.2,0.1-0.5,0.1-0.6,0.5c0,0.1,0,0.1,0.1,0.2c0.3,0.3,0.3,0.3,0,0.5c-0.4,0-0.5,0.3-0.7,0.6
	c-0.2,0.2-0.4,0.4-0.7,0.5c-0.1,0-0.2,0.1-0.3,0.1c0,0-0.1,0-0.1-0.1c0.4-0.3,0.8-0.5,1-1.1c0,0,0-0.1,0.1-0.1
	c0.5-0.1,0.4-0.4,0.2-0.7c0-0.1,0.1-0.2,0.2-0.3c0.1,0,0.1-0.1,0-0.2c-0.3,0-0.7-0.2-1,0.1c-0.4,0.4-1,0.6-1.2,1.2
	c-0.1,0.3-0.4,0.4-0.6,0.3c0.4-0.1,0.4-0.5,0.6-0.8c0.4-0.3,0.7-0.8,1.3-1c0.4,0,0.9-0.1,1.3-0.1c0.6,0,1.1-0.1,1.5-0.5
	c-0.1-0.1-0.2-0.1-0.3,0c0-0.1,0.1-0.1,0.1-0.1c0.2,0,0.5-0.1,0.7-0.1c0.1,0,0.3-0.1,0.4-0.3c-0.5,0.1-1.1,0-1.5,0.2
	c-0.1,0-0.1,0-0.1-0.1c0-0.1,0-0.1,0-0.1c-0.3,0-0.6,0.1-0.8,0.1c-0.4-0.1-0.9,0.1-1.3,0.1c-0.3-0.1-0.6-0.1-0.9,0.2
	c-0.3,0.1-0.3,0.1-0.1,0.4c0.1,0.1,0.1,0.3,0,0.4c-0.1,0.1-0.2,0.1-0.3,0.1c0,0,0,0-0.1,0c0,0-0.1,0,0-0.1c0.2-0.1,0.3-0.3,0-0.4
	c-0.1,0-0.2-0.2-0.2-0.3c0.1-0.1,0.3-0.2,0.4-0.3c0,0,0.1,0,0.1,0c0-0.1-0.1-0.1-0.1,0c-0.3-0.1-0.7,0-1-0.1
	c0.3-0.1,0.5-0.1,0.7-0.1c0.2,0,0.3-0.1,0.3-0.2c0.5-0.2,1-0.2,1.5-0.3c-0.5-0.2-1.1-0.3-1.7-0.2c-0.4,0.1-0.9,0.1-1.3,0.2
	c-0.4,0-0.9,0-1.3,0.1c-0.4,0-0.8,0-1.3,0c-0.2-0.1-0.4,0-0.6-0.2c0.2,0,0.4,0,0.6,0c0.4,0,0.9,0,1.3,0c0.4,0,0.9,0,1.3-0.1
	c0.4,0,0.9-0.1,1.3-0.2c0.4,0,0.8,0,1.3,0c0.4,0.1,0.8,0.2,1.3,0.2c0.4-0.1,0.8-0.3,1.3-0.3c0.4,0,0.9,0.1,1.3,0.1
	c0.5,0.2,0.9-0.1,1.3-0.2c0.4,0,0.9,0,1.3-0.1c0.4,0,0.9,0,1.3-0.2c0.3-0.1,0.7,0,1-0.2c-0.1-0.1-0.3-0.1-0.4-0.2
	c0.7,0.2,1.4,0,2-0.3c0.6-0.1,1.1-0.4,1.1-1.1c0.1-0.4,0.1-0.8,0.1-1.3c0-0.4,0.1-0.9,0-1.3c0-0.6-0.3-0.9-0.7-1.2
	c-0.3-0.2-0.5-0.4-0.7-0.7c-0.1-0.2-0.3-0.3-0.5-0.3c-0.2,0-0.5,0-0.7-0.1c-0.3-0.1-0.6-0.3-0.9-0.4c-0.2-0.1-0.3-0.3-0.5-0.4
	c-0.4-0.3-0.7-0.6-1.2-0.8c-0.1-0.1-0.2-0.1-0.3-0.1c-0.3-0.2-0.7-0.3-1.1-0.4c-0.4-0.2-0.7-0.3-1.2-0.2c-0.4,0.1-0.8,0.1-1.3,0.1
	c-0.2,0-0.3,0-0.5,0c-0.3,0-0.5-0.1-0.8,0c-0.2,0-0.5,0-0.7-0.1C13.1,27.1,13,27,12.7,27c-0.2,0-0.4-0.2-0.6-0.3
	c-0.1-0.3-0.5-0.3-0.6-0.6c-0.4-0.7-0.9-1.2-1.4-1.8c0,0.4,0.2,0.6,0.5,0.8c-0.1,0-0.2,0-0.3,0c-0.3,0-0.5,0-0.6,0.4
	c-0.1,0.3,0.1,0.5,0.4,0.6c0.2,0.1,0.2,0.2,0.1,0.4c-0.5,0.5-1,0.4-1.2-0.2C8.9,26,8.8,26,8.7,26c-0.4,0-0.7-0.1-1-0.3
	c-0.2-0.2-0.3-0.3-0.5,0c-0.2,0.2-0.4,0.3-0.6,0c0,0-0.1-0.1-0.1-0.1c-0.1-0.1-0.1,0.1-0.2,0.1C5.9,26,5.6,26,5.3,25.8
	c-0.1-0.1-0.1-0.1-0.2-0.2c-0.1-0.1-0.2,0-0.3,0c-0.4,0.1-0.6,0.1-0.8-0.3C4,25.2,4,25,4,24.9c0,0,0.1-0.1,0.1-0.1
	c0.1-0.1,0.1-0.3,0.2-0.4c0.1,0,0.1-0.1,0.1-0.2c0,0-0.1,0-0.1,0C4.1,24.3,4,24.2,4,24c0-0.1,0-0.2,0.1-0.2c0.1-0.3,0-0.4-0.2-0.5
	c-0.1,0-0.2,0-0.3-0.1c-0.1,0-0.3-0.1-0.3,0.2c-0.2,0.5-0.2,0.6-0.8,0.5c-0.1-0.1-0.2-0.1-0.3-0.2c-0.3-0.2-0.5-0.4-0.6-0.8
	c0,0,0,0,0.1,0c0.2-0.1,0.5-0.1,0.5-0.3c0-0.2-0.3-0.2-0.5-0.3c-0.1,0-0.1-0.1-0.1-0.2c0-0.1,0.1-0.1,0.2-0.2
	c0.2-0.1,0.4-0.1,0.5-0.3c0,0,0,0,0,0c0.1,0,0-0.1,0-0.1c-0.2-0.1-0.3-0.3-0.5-0.3c-0.2-0.1-0.1-0.1-0.1-0.3
	c0.1-0.2,0.3-0.4,0.2-0.6C2,20,2.1,19.6,2.1,19.3c0-0.1,0.1-0.2,0-0.3c-0.1-0.1-0.2,0-0.3,0.1c-0.2,0.2-0.5,0.2-0.7,0
	c0,0-0.1-0.1-0.1-0.1c0-0.1,0-0.2,0.1-0.3c0.1-0.1,0.1-0.1,0-0.2c-0.3-0.3-0.3-0.4,0-0.8l0,0l0,0c0.4-0.2,0.8-0.1,1.2,0
	c-0.3-0.6-0.8-0.8-1.2-1.2c0,0-0.1-0.1-0.1-0.1C1,16.2,1,15.9,1.2,15.7c0.1,0,0.1-0.1,0.2-0.2c0.1-0.1,0.4-0.1,0.3-0.3
	c0-0.2-0.2-0.2-0.4-0.3c0,0-0.1,0-0.1,0c-0.1-0.1-0.2-0.1-0.4-0.2c-0.4-0.2-0.4-0.3-0.3-0.7c0.2-0.3,0.4-0.5,0.7-0.6
	c0.4,0,0.4,0.3,0.5,0.6c-0.1,0.2,0,0.3,0.2,0.3c0.1,0,0.3,0,0.4-0.1c0.4-0.1,0.4-0.3,0.2-0.6c0-0.1,0-0.3,0-0.4
	c0.1-0.2,0.2-0.5,0.4-0.7C3,12.3,3,12.1,2.9,12c-0.2-0.2-0.1-0.4,0-0.6c0.3-0.2,0.6-0.2,0.9-0.1c0.1,0.1,0.2-0.1,0.2,0
	c0.1,0.2,0.2,0.3,0.2,0.5c0,0.2,0.1,0.5,0.1,0.7c0.1,0.4,0.3,0.7,0.7,0.9c0.4,0.1,0.3-0.2,0.3-0.4c0-0.1,0-0.2-0.1-0.2
	c-0.2,0-0.3-0.2-0.5-0.3c-0.3-0.4-0.5-0.7-0.5-1.2c0.1-0.5,0.3-0.6,0.7-0.5c0.3,0.1,0.5,0.3,0.6,0.6c0,0.1,0,0.3,0.1,0.3
	c0.3,0,0.5,0.2,0.8,0.4c0.2,0.1,0.3,0.2,0.5,0.1C7,12,6.9,11.8,7,11.6c0.1-0.2,0.3-0.1,0.4-0.1c0.1,0.1,0.2,0.2,0.2,0.3
	C7.8,12,7.9,12,8.1,11.9c0.2-0.1,0.2-0.4,0.3-0.5c0.1-0.4,0-0.9-0.2-1.3c0-0.1,0-0.2,0.2-0.2c0.1,0,0.2,0,0.3,0
	c0.2,0,0.3-0.1,0.3-0.3c0-0.3-0.1-0.6-0.2-0.8C8.6,8.5,8.6,8.4,8.9,8.4c0.3,0,0.4,0,0.4-0.4c0-0.1,0-0.3,0-0.4
	c0.2-0.4,0.5-0.7,0.9-0.9c0,0,0.1,0,0.1,0c0.4-0.1,0.4-0.1,0.4,0.3c0,0.1,0,0.2,0.2,0.1c0.2-0.1,0.4-0.2,0.6-0.4
	c0.1,0,0.2-0.1,0.2-0.1c0.1-0.1,0.3-0.1,0.4,0c0.1,0.1,0.1,0.3,0.1,0.4c0,0,0,0.1,0,0.1c0,0.1,0,0.1,0.1,0.1c0.1,0,0.1,0,0.1-0.1
	c0-0.1,0-0.2,0-0.3c0-0.2-0.1-0.4,0-0.7c0.2-0.1,0.3-0.2,0-0.3c-0.1,0-0.2-0.1-0.3-0.1c-0.1,0-0.2,0-0.2-0.1c0-0.1,0.1-0.2,0.1-0.2
	c0.2-0.1,0.5-0.2,0.7-0.2c0.3-0.1,0.5-0.1,0.8-0.2c-0.3-0.2-0.5-0.2-0.8-0.2c-0.1,0-0.3,0-0.4,0c0-0.4,0.1-0.6,0.4-0.8
	c0.1,0,0.2,0,0.3,0c0.2,0.1,0.3,0,0.3-0.2c0-0.1,0-0.1,0.1-0.2c0.2-0.2,0.4-0.2,0.6-0.2c0.2,0.1,0.4,0.2,0.6-0.1
	c0.2-0.3,0.5-0.1,0.7,0c0.1,0.1,0.3,0.2,0.4,0.4c0.1,0.1,0.2,0.2,0.2,0.3c0.1,0.4,0.4,0.4,0.6,0.2c0.1,0.2,0.2,0.4,0.4,0.5
	c0.3,0.2,0.6,0.1,0.8-0.1c0.2-0.3-0.1-0.3-0.2-0.5c-0.1-0.2-0.4-0.2-0.4-0.5c0.1-0.6,0.3-0.7,0.7-0.7C18,3,18.2,3.1,18.3,3.3
	c0.1-0.2,0.2-0.5,0.4-0.6c0.1-0.1,0.3,0,0.4,0c0.1,0.1,0.2,0.2,0.4,0C19.7,2.5,20.1,2.5,20.5,2.5z M34.5,37.1
	c0.3,0.1,0.5,0.1,0.8-0.1C35.1,37,34.8,37,34.5,37.1C34.2,37,34,37,33.7,37C33.9,37.1,34.2,37.1,34.5,37.1z M32.1,40.7
	c0.3-0.5,0.3-0.5-0.1-0.7c-0.1-0.1-0.2-0.1-0.3-0.2c-0.1-0.1-0.2-0.2-0.1-0.3c0.2-0.1,0.4-0.2,0.6-0.2c0.1,0,0.1-0.1,0.1-0.2
	c0-0.1,0-0.1-0.1-0.1c-0.6-0.1-1-0.5-1.5-0.8c0,0,0,0,0,0c-0.1-0.1-0.2-0.2-0.1-0.4c0.1-0.1,0-0.1-0.1-0.1c-0.2,0-0.3-0.1-0.5,0
	c-0.1,0.1-0.2,0.2-0.4,0.2c-0.3,0-0.2,0.2-0.1,0.3c0.2,0.6,0.7,0.7,1.2,0.9c0.2,0.1,0.5,0.2,0.6,0.5c0.1,0.3,0,0.5-0.3,0.7
	c-0.2,0.1-0.4,0.2-0.3,0.5c0,0.2,0,0.3,0.2,0.4c0.4,0.1,0.5,0.3,0.6,0.7c0,0.3,0.2,0.5,0.4,0.5c0.4,0.1,0.8,0.2,1.2,0.3
	c0-0.2,0-0.4,0.1-0.6c0.1-0.3,0.1-0.5-0.2-0.7c-0.1-0.1-0.4-0.1-0.4-0.3c0-0.2,0.3-0.1,0.4-0.2c0.1,0,0.2-0.1,0.3-0.1
	c0.2-0.1,0.4-0.1,0.6-0.2c0.2-0.1,0.2-0.2,0-0.3c-0.3-0.2-0.3-0.2,0-0.5c0.1-0.1,0.3-0.1,0.2-0.3c0-0.1-0.2-0.1-0.4-0.1
	c0,0,0,0-0.1,0c-0.1-0.1-0.3-0.1-0.4-0.1c-0.1,0-0.1,0-0.2,0c-0.1,0-0.1,0.1-0.1,0.1c0,0,0,0,0,0c-0.2,0.1-0.3,0.2-0.5,0.2
	c0.4,0.4,0.4,0.5,0.1,1c0,0,0,0.1,0,0.1c-0.1,0.2-0.2,0.4-0.2,0.6c-0.1-0.1-0.1-0.1-0.1-0.2c0-0.1,0-0.1,0-0.2
	C32,40.9,32,40.8,32.1,40.7z M16,21.8c-0.1,0-0.1,0.1-0.1,0.1c0,0,0.1,0,0.1,0c0.2,0,0.3,0,0.5,0c0,0,0.1,0,0.1,0
	c0.2,0,0.4,0,0.2,0.3c-0.1,0.1,0,0.1,0.1,0.1c0.1,0.1,0.2,0.1,0.3,0.2c-0.2,0.1-0.3,0.1-0.4,0.2c-0.1,0-0.2,0-0.3,0c0,0-0.1,0-0.1,0
	c0,0.1,0,0.1,0.1,0.1c0.1,0.3,0,0.5,0,0.8c-0.1,0.1-0.1,0.3-0.2,0.4c-0.1,0.1-0.2,0.2-0.3,0c-0.1-0.1-0.1-0.2-0.2-0.2
	c-0.1,0-0.1,0.2-0.1,0.3c0,0.3-0.1,0.4-0.4,0.2c0,0.2,0,0.4-0.1,0.5c-0.1,0.1-0.3,0.1-0.4,0c0.1,0.2,0.3,0.3,0.5,0.5
	c0.4,0.4,0.8,0.7,1.3,1c0.4,0.1,0.9,0.1,1.3,0.3c0.4,0.2,0.9,0.3,1.3,0.5c0.5,0.1,0.9,0.4,1.3,0.8c0.4,0.4,0.8,0.6,1.3,0.6
	c0.4,0.1,0.9,0,1.3-0.1c0.5,0.1,0.9,0.2,1.1,0.7c0,0,0,0,0.1,0.1c0,0,0.1,0.1,0.1,0c0,0,0-0.1,0-0.1c-0.2-0.4-0.3-0.8-0.7-1
	c-0.2-0.1-0.3-0.3-0.4-0.4c-0.3-0.3-0.5-0.7-0.7-1.1c-0.2-0.3-0.5-0.5-0.7-0.8c-0.2-0.2-0.4-0.4-0.6-0.5c-0.3-0.3-0.5-0.5-0.8-0.8
	c-0.1-0.2-0.2-0.3-0.4-0.5c-0.3-0.4-0.6-0.8-0.9-1.2c0-0.1,0-0.1-0.1-0.1c-0.3-0.4-0.7-0.6-1.1-0.7c-0.3-0.2-0.4-0.4-0.6-0.6
	c-0.2-0.4-0.3-0.8-0.4-1.2c0-0.2,0-0.3-0.1-0.4c0-0.1,0-0.2-0.1-0.2c-0.1,0-0.2,0.1-0.2,0.2c-0.4,0.2-0.7,0.1-1-0.2
	c0,0.2-0.1,0.4-0.1,0.6c-0.1,0.2-0.2,0.4-0.3,0.6c-0.2,0.2-0.3,0.3-0.6,0.1c0,0.2,0,0.4,0,0.5c-0.3-0.1-0.6,0-0.8-0.3
	c-0.1,0.1-0.1,0.2,0,0.3c0,0.1,0,0.3-0.1,0.4c-0.3,0.2-0.3,0.5-0.3,0.8c0,0.3,0,0.6,0,1c0,0.3,0.1,0.5,0.4,0.6
	c-0.2-0.4,0-0.8-0.2-1.2c-0.1-0.1,0-0.2,0.1-0.3c0.1,0,0.2-0.1,0.1-0.2c-0.2-0.3,0-0.4,0.2-0.4c0.2,0,0.4,0.1,0.6,0.2
	c0.1-0.3,0-0.7,0.5-0.8c0,0,0-0.1,0-0.1c0,0,0-0.1,0.1-0.1c0.4-0.2,0.5-0.2,0.8,0.1C16.1,21.6,16.1,21.7,16,21.8z M28.6,19
	c0.1-0.2,0.1-0.4-0.2-0.3c-0.1,0-0.2-0.1-0.3-0.1c0,0-0.1-0.1-0.1,0c-0.2,0.2-0.3,0.7-0.2,0.9c0.1,0.3,0.3,0.6,0,0.9
	c-0.1,0-0.2,0.1-0.3,0.1c0,0-0.1,0-0.1,0c-0.1,0-0.1-0.2-0.2,0c-0.1,0.4-0.3,0.7-0.3,1.1c-0.1,0.4-0.1,0.9-0.1,1.3
	c0,0.4,0,0.8,0,1.3c0,0.4,0.2,0.6,0.5,0.4c0.2-0.1,0.4-0.2,0.5-0.4c0.1-0.1,0.2-0.2,0.3-0.2c0.3-0.2,0.7-0.5,1-0.7
	c0.2-0.1,0.2-0.2,0.1-0.4c0-0.2,0.1-0.3,0.2-0.5c0.2-0.2,0.5-0.4,0.8-0.4c0.1,0,0.2-0.1,0.2-0.2c0-0.2-0.1-0.1-0.2-0.1
	c-0.3,0-0.5,0-0.8,0.1c-0.1,0-0.1,0-0.2,0c-0.1,0-0.2,0-0.3,0c-0.1,0-0.2,0-0.2-0.1c0.6-0.4,1.3-0.4,2-0.6c-0.2-0.2-0.3-0.3-0.6-0.2
	c-0.6,0.1-1.2,0.2-1.9,0.1c-0.1-0.1-0.3-0.2-0.4-0.4c0.1-0.1,0.1-0.2,0.2-0.3c0.4-0.1,0.6-0.4,0.5-0.8C28.5,19.1,28.6,19.1,28.6,19z
	 M36.1,23.2c0.1,0,0.1-0.1,0.2-0.1c0.1-0.1,0.3,0,0.2-0.3c0-0.1,0-0.1,0-0.2c0-0.2-0.5-0.7-0.6-0.6c-0.2,0.1-0.2,0.4-0.2,0.6
	c0,0,0,0.1,0,0.1c0,0.1,0,0.3,0,0.4C35.8,23.6,36,23.3,36.1,23.2z M25.9,18.7c0.3,0.2,0.3-0.1,0.4-0.3c0.1-0.2-0.1-0.1-0.2-0.1
	c-0.1,0-0.2-0.1-0.2-0.2c0.1-0.4-0.2-0.5-0.5-0.6c-0.2-0.1-0.2,0-0.3,0.2c-0.1,0.2-0.2,0.3,0,0.5C25.3,18.4,25.6,18.6,25.9,18.7z
	 M26.1,24.1c0-0.4,0.1-0.9,0.1-1.3c0.1-0.4,0.1-0.8,0.2-1.3c0.1-0.2,0.1-0.5,0.2-0.7c0,0,0.1-0.1,0-0.2c-0.1-0.1-0.1,0-0.2,0.1
	c-0.2,0.1-0.4,0.2-0.6,0.3c-0.2,0.1-0.4,0.2-0.6,0.2c-0.3-0.1-0.4,0.1-0.5,0.3c-0.1,0.4-0.2,0.9-0.3,1.3c0,0.4,0,0.9,0.1,1.3
	c0,0.4,0,0.8,0,1.3c-0.2,0.5-0.3,1,0.3,1.3c0.1,0.1,0,0.3,0.2,0.3c0.4,0.2,0.5,0.5,0.6,0.9c0,0,0,0.1,0.1,0.1c0.1-0.7,0.2-1.3,0.3-2
	c0-0.2,0-0.4,0.1-0.6C26.1,25,26.1,24.5,26.1,24.1z M28.1,27.2c0.3-0.2,0.7-0.3,1-0.5c0.1,0,0.2-0.1,0.3-0.1
	c0.4-0.1,0.8-0.3,1.3-0.4c0.4-0.2,0.9-0.5,1.2-0.8c0,0,0,0,0.1,0c0.4-0.3,0.8-0.7,1.3-1c0.1,0,0.2-0.1,0.3-0.1c0.1,0,0.2,0,0.3-0.1
	c0,0,0,0,0.1,0c0.2,0,0.4-0.1,0.6-0.2c0.7-0.3,0.8-0.4,0.8-1.2c0-0.2,0.1-0.5,0.1-0.7c0-0.2,0-0.2-0.2-0.2c-0.4,0-0.7,0.2-0.9,0.6
	c-0.1,0.2-0.1,0.5-0.2,0.7c-0.2,0.5-0.4,0.6-0.8,0.3c-0.1-0.1-0.2-0.3-0.3-0.3c-0.3,0-0.5-0.2-0.7-0.4c-0.1-0.3-0.3-0.3-0.5-0.2
	c-0.3,0.2-0.5,0.4-0.5,0.7c0,0.3-0.2,0.6-0.5,0.7c0,0-0.1,0-0.1,0c-0.1,0-0.1,0-0.2,0c-0.2-0.2-0.1-0.4-0.1-0.6
	c-0.9,0.4-1.6,0.9-2.3,1.6c-0.2,0.1-0.2,0.2-0.3,0.4c-0.5,0.3-0.5,0.8-0.6,1.3C27,27,27,27.4,27.1,27.8
	C27.4,27.6,27.8,27.4,28.1,27.2z M23,24.1c-0.1-0.3-0.3-0.5-0.5-0.8C22.3,23,22,22.9,21.7,23c-0.3,0-0.5-0.1-0.7-0.3
	c-0.1-0.1-0.1-0.1-0.2-0.2c-0.1-0.1-0.2-0.1-0.3,0.1c-0.1,0.1-0.1,0.2,0,0.3c0.2,0.2,0.4,0.5,0.6,0.7c0.5,0.7,1.1,1.2,1.8,1.6
	c0.1,0.1,0.2,0.2,0.3,0.2c0.1-0.1,0.1-0.3,0.1-0.4C23.3,24.7,23.2,24.4,23,24.1z M14,25.1c-0.3-0.4-0.7-0.7-1.3-0.7
	c-0.3-0.1-0.7,0-1-0.3c0,0.3,0,0.5-0.1,0.7c-0.1,0.2-0.1,0.3,0,0.4c0.1,0.1,0.2,0.2,0.2,0.3c0.2,0.3,0.4,0.8,0.9,0.8
	c0.4,0.1,0.9,0.2,1.3,0.2c0.4,0.1,0.8,0.1,1.2,0.1c0,0,0.1,0,0.1,0c0.2,0.1,0.3,0.1,0.4-0.1C15.1,26.1,14.6,25.5,14,25.1z
	 M21.2,39.5c0.6-0.3,0.7-1,0.7-1.6c0-0.1,0-0.2-0.1-0.2c-0.2,0-0.4,0.1-0.4,0.3c-0.1,0.6-0.5,0.9-1,1.2c-0.1,0-0.2,0.1-0.3,0.1
	c-0.3,0.1-0.6,0.1-0.9,0.2c-0.7,0.1-1.1,0.6-1.3,1.2c0.4-0.1,0.9-0.2,1.3-0.3c0.5,0,1,0,1.4-0.4C20.7,39.9,21,39.7,21.2,39.5z
	 M35.7,24.4c0.9,0,1.7-0.3,2.6-0.6c0.4-0.1,0.7-0.1,1.1-0.2c-0.1,0-0.1,0-0.1,0c-0.6-0.2-0.6-0.2-0.5-0.8c0-0.1,0-0.1-0.1-0.2
	c-0.2-0.1-0.7,0-0.8,0.2c-0.3,0.3-0.6,0.6-1,0.8c-0.3,0.1-0.6,0.2-0.9,0.3c-0.1,0-0.2,0-0.3,0.1c-0.8,0.3-1.6,0.5-2.3,1.1
	c0.3,0.1,0.6,0.1,0.9-0.1C34.7,24.7,35.2,24.5,35.7,24.4z M23,16.5c-0.3,0.1-0.6,0.4-0.9,0.3c-0.3-0.1-0.4,0.1-0.5,0.3
	c-0.2,0.4-0.2,0.9-0.4,1.2c0,0.1,0,0.1,0,0.1c0.1,0.1,0.2,0.2,0.3,0.2c0.1,0,0.1-0.2,0.2-0.2c0.5,0,0.9,0.1,1.4,0.3
	c0.1,0,0.2,0.1,0.2,0c0-0.1,0-0.2-0.1-0.2c-0.1-0.1-0.3-0.2-0.4-0.2c-0.1,0-0.3,0-0.3-0.1c0-0.1,0.1-0.2,0.2-0.2
	c0.2-0.1,0.3-0.2,0.5-0.2c0.3-0.1,0.6-0.1,0.9-0.2c-0.3-0.3-0.5-0.7-0.6-1.2c0-0.1-0.1-0.2-0.2-0.1C23.2,16.4,23.1,16.4,23,16.5z
	 M17.6,19.6c0.5-0.3,0.5-0.3,0.1-0.8c0,0,0-0.1-0.1-0.1c-0.1-0.1-0.2-0.1-0.2,0c-0.2,0.2-0.3,0.3-0.2,0.6c0.2,0.6,0.3,1.2,0.7,1.8
	c0,0.1,0.1,0.2,0.2,0.1c0.1,0,0.1-0.1,0-0.2c-0.1-0.1,0-0.2,0-0.2c0.1-0.1,0.1-0.2,0.1-0.3c-0.1-0.2-0.1-0.3,0-0.5
	c0.1-0.1,0-0.2-0.2-0.2C17.9,19.8,17.7,19.8,17.6,19.6z M33.5,38.4c-0.2-0.1-0.5-0.2-0.7-0.3c-0.3-0.1-0.7-0.2-0.9-0.5
	c-0.2-0.2-0.4,0-0.4,0.2c0,0,0,0.1-0.1,0.1c-0.2,0.2,0,0.2,0.1,0.3c0.4,0.3,0.9,0.4,1.4,0.6c0,0,0.1,0,0.1,0
	C33.1,38.5,33.4,38.6,33.5,38.4z M16.7,37.1c-1.2-0.2-1.2-0.2-2.4,0c-0.1,0-0.3,0-0.4,0.1c-0.6,0-1.2,0.2-1.8,0.3
	c0.2,0.2,0.5,0.2,0.7,0.1c0.2-0.1,0.4-0.1,0.6-0.2C14.5,37.4,15.6,37.3,16.7,37.1z M27.2,17.5c0,0-0.1,0-0.1,0.1
	c-0.1,0.4-0.4,0.7-0.5,1.1c0,0.1,0,0.1,0.1,0.1c0.5,0.2,0.7,0.2,0.9-0.4c0,0,0,0,0,0c0-0.1,0.1-0.2,0.1-0.3
	c-0.1-0.2-0.2-0.3-0.4-0.5C27.3,17.5,27.3,17.5,27.2,17.5z M39.7,23.5c0.2,0,0.4-0.1,0.6-0.1c0.3,0,0.4-0.3,0.6-0.6
	c0-0.1,0-0.1-0.1-0.2c-0.3-0.2-0.7-0.1-0.8,0.2C39.9,23.1,39.8,23.3,39.7,23.5z M18.7,18.8c0.2-0.2,0.3-0.4,0.5-0.5
	c0.1-0.1,0.2-0.1,0.1-0.2c-0.1-0.2-0.3-0.3-0.5-0.3c-0.1,0-0.1,0.1-0.2,0.2C18.4,18.2,18.6,18.5,18.7,18.8z M36.8,37.4
	c0-0.3-0.2-0.5-0.5-0.4c-0.3,0-0.6,0.1-1,0.1c0,0,0,0-0.1,0.1C35.9,37.2,36.3,37.3,36.8,37.4z M13.1,22.5c-0.2,0.1-0.1,0.2-0.2,0.4
	c0,0.3-0.1,0.6-0.1,0.9c0,0.1-0.1,0.2,0.1,0.2c0.2,0,0.1-0.1,0.1-0.2C13,23.3,13.1,22.9,13.1,22.5z M23.6,23.2
	c0.1-0.1,0.1-0.2,0.1-0.3c0-0.1,0.1-0.3,0-0.3c-0.1-0.1-0.2,0.1-0.3,0.1c-0.1,0-0.2,0.1-0.1,0.2C23.4,22.9,23.5,23.1,23.6,23.2z
	 M18.4,37.4c0,0,0-0.1,0-0.1c-0.5,0.2-1,0.1-1.5,0.3c0,0,0,0.1,0,0.1C17.5,37.6,17.9,37.5,18.4,37.4z M32.6,37.3
	c0.1,0.1,0.2,0.3,0.4,0.3c0,0,0-0.1,0-0.1C32.9,37.3,32.8,37.2,32.6,37.3z M26.4,37.6c0.6,0.2,0.6,0.2,0.8,0.1
	C26.9,37.7,26.7,37.6,26.4,37.6z M34.5,40.3c-0.1-0.1-0.1-0.3-0.4-0.2C34.2,40.2,34.3,40.3,34.5,40.3z M27.5,37.9
	C27.5,37.9,27.5,37.9,27.5,37.9c0.1,0,0.1,0,0.1,0C27.5,37.9,27.5,37.9,27.5,37.9C27.5,37.9,27.5,37.9,27.5,37.9z"/>
</svg>
